<svg width="36" height="36" viewBox="0 0 36 36" fill="none" xmlns="http://www.w3.org/2000/svg">
<rect width="36" height="36" rx="18" fill="#0945DE"/>
<path d="M11.7445 22.4682C11.2509 22.9618 11.2509 23.762 11.7445 24.2555C12.238 24.7491 13.0382 24.7491 13.5318 24.2555L11.7445 22.4682ZM24.6257 12.6381C24.6257 11.9401 24.0599 11.3743 23.3619 11.3743L11.9876 11.3743C11.2896 11.3743 10.7238 11.9401 10.7238 12.6381C10.7238 13.3361 11.2896 13.9019 11.9876 13.9019H22.0981V24.0124C22.0981 24.7104 22.6639 25.2762 23.3619 25.2762C24.0599 25.2762 24.6257 24.7104 24.6257 24.0124L24.6257 12.6381ZM13.5318 24.2555L24.2556 13.5317L22.4683 11.7444L11.7445 22.4682L13.5318 24.2555Z" fill="white"/>
</svg>
