<svg width="64" height="64" viewBox="0 0 64 64" fill="none" xmlns="http://www.w3.org/2000/svg">
<rect width="64" height="64" rx="32" fill="#0945DE"/>
<path d="M50.3093 27.6079H48.4343V23.1548H43.9764V21.2798H50.3093V27.6079Z" fill="white"/>
<path d="M21.8983 52.2032H15.8186V45.5095C15.8186 44.8532 16.353 44.3188 17.0092 44.3188H20.7077C21.0264 44.3188 21.3405 44.4501 21.5655 44.6845C21.7811 44.9095 21.903 45.2142 21.8983 45.5235V52.2032ZM17.6936 50.3282H20.0233V46.1938H17.6936V50.3282Z" fill="white"/>
<path d="M31.367 52.2032H25.2874V39.4392C25.2874 38.7829 25.8217 38.2485 26.478 38.2485H30.1764C30.4952 38.2485 30.8092 38.3798 31.0342 38.6142C31.2499 38.8392 31.3717 39.1438 31.367 39.4532V52.2032ZM27.1624 50.3282H29.492V40.1235H27.1624V50.3282Z" fill="white"/>
<path d="M50.3045 52.2032H44.2249V33.3454C44.2249 32.6892 44.7592 32.1548 45.4155 32.1548H49.1139C49.4327 32.1548 49.7467 32.286 49.9717 32.5204C50.1874 32.7454 50.3092 33.0501 50.3045 33.3595V52.2032ZM46.0999 50.3282H48.4295V34.0298H46.0999V50.3282Z" fill="white"/>
<path d="M40.8358 52.2033H34.7561V41.2814C34.7561 40.6252 35.2905 40.0908 35.9467 40.0908H39.6452C39.9686 40.0908 40.2827 40.2221 40.503 40.4564C40.7186 40.6814 40.8405 40.9814 40.8358 41.2908V52.2033ZM36.6311 50.3283H38.9608V41.9658H36.6311V50.3283Z" fill="white"/>
<path d="M17.3233 42.5703L16.189 41.0797L30.9874 29.8719L35.7171 35.1031L48.6968 21.5703L50.0468 22.8641L35.6796 37.85L30.753 32.4031L17.3233 42.5703Z" fill="white"/>
<path d="M51.2467 50.3281H14.8811V52.2031H51.2467V50.3281Z" fill="white"/>
<path d="M22.2968 30.8893C17.0327 30.8893 12.7531 26.6096 12.7531 21.3455C12.7531 16.0814 17.0327 11.8018 22.2968 11.8018C27.5609 11.8018 31.8406 16.0814 31.8406 21.3455C31.8406 26.6096 27.5609 30.8893 22.2968 30.8893ZM22.2968 13.6768C18.0687 13.6768 14.6281 17.1174 14.6281 21.3455C14.6281 25.5736 18.0687 29.0143 22.2968 29.0143C26.5249 29.0143 29.9656 25.5736 29.9656 21.3455C29.9656 17.1174 26.5249 13.6768 22.2968 13.6768Z" fill="white"/>
<path d="M22.2968 23.4082C21.1577 23.4082 20.2343 22.4848 20.2343 21.3457C20.2343 20.2066 21.1577 19.2832 22.2968 19.2832C23.4358 19.2832 24.3593 20.2066 24.3593 21.3457C24.3593 21.8895 24.1483 22.4051 23.7639 22.7988L23.7546 22.8082C23.3702 23.1926 22.8499 23.4082 22.2968 23.4082ZM22.2968 21.1582C22.1936 21.1582 22.1093 21.2426 22.1093 21.3457C22.1093 21.4488 22.1936 21.5332 22.2968 21.5332C22.3577 21.5332 22.3999 21.5051 22.428 21.4816C22.4514 21.4582 22.4843 21.4113 22.4843 21.3457C22.4843 21.2426 22.3999 21.1582 22.2968 21.1582Z" fill="white"/>
<path d="M26.9832 24.7011L23.7582 21.4761L22.4324 22.8019L25.6574 26.0269L26.9832 24.7011Z" fill="white"/>
<path d="M23.2343 17.0566H21.3593V20.2207H23.2343V17.0566Z" fill="white"/>
<path d="M23.2343 12.7344H21.3593V14.5531H23.2343V12.7344Z" fill="white"/>
<path d="M23.2343 28.1377H21.3593V29.9518H23.2343V28.1377Z" fill="white"/>
<path d="M15.5045 20.4077H13.6904V22.2827H15.5045V20.4077Z" fill="white"/>
<path d="M30.9077 20.4077H29.0936V22.2827H30.9077V20.4077Z" fill="white"/>
</svg>
