<svg width="64" height="64" viewBox="0 0 64 64" fill="none" xmlns="http://www.w3.org/2000/svg">
<rect width="64" height="64" rx="32" fill="#0945DE"/>
<path d="M32.9376 27.3354H31.0626V29.0136H32.9376V27.3354Z" fill="white"/>
<path d="M32.9376 19.7041H31.0626V21.3541H32.9376V19.7041Z" fill="white"/>
<path d="M32.5391 28.2728H31.461C30.1579 28.2728 29.0938 27.2321 29.0938 25.9571H30.9688C30.9688 26.2009 31.1891 26.3978 31.461 26.3978H32.5391C32.8766 26.3978 33.1532 26.1493 33.1532 25.8399C33.1532 25.6478 33.0454 25.5165 32.9844 25.4556C32.9047 25.3759 32.7594 25.2821 32.5391 25.2821H31.461C30.0875 25.2821 28.9719 24.1899 28.9719 22.8493C28.9719 22.1931 29.2344 21.579 29.7125 21.1149C30.1813 20.6649 30.8 20.4165 31.461 20.4165H32.5391C33.8422 20.4165 34.9063 21.4571 34.9063 22.7321H33.0313C33.0313 22.4931 32.8063 22.2915 32.5391 22.2915H31.461C31.2407 22.2915 31.0954 22.3853 31.0157 22.4649C30.9547 22.5259 30.8469 22.6571 30.8469 22.8493C30.8469 23.1587 31.1235 23.4071 31.461 23.4071H32.5391C33.2 23.4071 33.8188 23.6556 34.2875 24.1056C34.7657 24.5649 35.0282 25.1837 35.0282 25.8399C35.0282 27.1806 33.9125 28.2728 32.5391 28.2728Z" fill="white"/>
<path d="M32.0001 32.8293C27.3313 32.8293 23.5298 29.0277 23.5298 24.359C23.5298 19.6902 27.3313 15.8887 32.0001 15.8887C36.6688 15.8887 40.4704 19.6902 40.4704 24.359C40.4704 29.0277 36.6688 32.8293 32.0001 32.8293ZM32.0001 17.7637C28.3626 17.7637 25.4048 20.7215 25.4048 24.359C25.4048 27.9965 28.3626 30.9543 32.0001 30.9543C35.6376 30.9543 38.5954 27.9965 38.5954 24.359C38.5954 20.7215 35.6376 17.7637 32.0001 17.7637Z" fill="white"/>
<path d="M40.1611 34.6386L38.9939 33.1714C41.6986 31.0198 43.2501 27.8089 43.2501 24.3589C43.2501 18.1573 38.2017 13.1089 32.0001 13.1089V11.2339C35.5064 11.2339 38.8017 12.5979 41.2814 15.0776C43.7611 17.5573 45.1251 20.8526 45.1251 24.3589C45.1251 28.3855 43.3157 32.1308 40.1611 34.6386Z" fill="white"/>
<path d="M32.0001 37.4837C28.4939 37.4837 25.1986 36.1196 22.7189 33.6399C20.2392 31.1603 18.8751 27.8649 18.8751 24.3587C18.8751 22.3056 19.3345 20.3368 20.2439 18.5134C21.1111 16.7743 22.3814 15.2181 23.9142 14.0181L25.072 15.4946C22.3251 17.6415 20.7501 20.8759 20.7501 24.3587C20.7501 30.5603 25.7986 35.6087 32.0001 35.6087V37.4837Z" fill="white"/>
<path d="M25.6251 17.984H23.7501V15.3262H21.0923V13.4512H25.6251V17.984Z" fill="white"/>
<path d="M42.9079 35.2667H38.3751V30.7339H40.2501V33.3917H42.9079V35.2667Z" fill="white"/>
<path d="M18.2892 52.7653C16.372 52.7653 14.811 51.2044 14.811 49.2872C14.811 47.37 16.372 45.8091 18.2892 45.8091C20.2063 45.8091 21.7673 47.37 21.7673 49.2872C21.7673 51.2044 20.2063 52.7653 18.2892 52.7653ZM18.2892 47.6841C17.4032 47.6841 16.686 48.4013 16.686 49.2872C16.686 50.1731 17.4032 50.8903 18.2892 50.8903C19.1751 50.8903 19.8923 50.1731 19.8923 49.2872C19.8923 48.4013 19.1751 47.6841 18.2892 47.6841Z" fill="white"/>
<path d="M32.0001 52.7653C30.0829 52.7653 28.522 51.2044 28.522 49.2872C28.522 47.37 30.0829 45.8091 32.0001 45.8091C33.9173 45.8091 35.4782 47.37 35.4782 49.2872C35.4782 51.2044 33.9173 52.7653 32.0001 52.7653ZM32.0001 47.6841C31.1142 47.6841 30.397 48.4013 30.397 49.2872C30.397 50.1731 31.1142 50.8903 32.0001 50.8903C32.886 50.8903 33.6032 50.1731 33.6032 49.2872C33.6032 48.4013 32.886 47.6841 32.0001 47.6841Z" fill="white"/>
<path d="M45.711 52.7653C43.7938 52.7653 42.2329 51.2044 42.2329 49.2872C42.2329 47.37 43.7938 45.8091 45.711 45.8091C47.6282 45.8091 49.1892 47.37 49.1892 49.2872C49.1892 51.2044 47.6282 52.7653 45.711 52.7653ZM45.711 47.6841C44.8251 47.6841 44.1079 48.4013 44.1079 49.2872C44.1079 50.1731 44.8251 50.8903 45.711 50.8903C46.597 50.8903 47.3142 50.1731 47.3142 49.2872C47.3142 48.4013 46.597 47.6841 45.711 47.6841Z" fill="white"/>
<path d="M46.6532 46.7511H44.7782V43.6433C44.7782 43.6339 44.7689 43.6245 44.7595 43.6245H19.2454C19.2361 43.6245 19.2267 43.6339 19.2267 43.6433V46.7511H17.3517V43.6433C17.3517 42.598 18.2001 41.7495 19.2454 41.7495H44.7595C45.8048 41.7495 46.6532 42.598 46.6532 43.6433V46.7511Z" fill="white"/>
<path d="M32.9376 39.251H31.0626V46.751H32.9376V39.251Z" fill="white"/>
</svg>
