<svg width="64" height="64" viewBox="0 0 64 64" fill="none" xmlns="http://www.w3.org/2000/svg">
<rect width="64" height="64" rx="32" fill="#0945DE"/>
<path d="M14.9093 11.7686H13.0343V52.2311H14.9093V11.7686Z" fill="white"/>
<path d="M52.0905 48.9497H11.6281V50.8247H52.0905V48.9497Z" fill="white"/>
<path d="M52.4045 21.2241L46.2395 19.0439L45.6144 20.8117L51.7794 22.9918L52.4045 21.2241Z" fill="white"/>
<path d="M44.2353 21.1385L42.853 19.8716L34.1967 29.3158L35.5789 30.5827L44.2353 21.1385Z" fill="white"/>
<path d="M22.7468 38.473L21.1531 37.4793L26.3562 29.1543L32.6046 29.9699L32.3609 31.8262L27.3124 31.1699L22.7468 38.473Z" fill="white"/>
<path d="M20.0858 37.701L14.3521 35.1597L13.5923 36.8738L19.326 39.4152L20.0858 37.701Z" fill="white"/>
<path d="M21.2609 49.8872H19.3859V52.231H21.2609V49.8872Z" fill="white"/>
<path d="M27.6172 49.8872H25.7422V52.231H27.6172V49.8872Z" fill="white"/>
<path d="M33.9687 49.8872H32.0937V52.231H33.9687V49.8872Z" fill="white"/>
<path d="M40.3203 49.8872H38.4453V52.231H40.3203V49.8872Z" fill="white"/>
<path d="M46.6765 49.8872H44.8015V52.231H46.6765V49.8872Z" fill="white"/>
<path d="M13.9718 42.5981H11.6281V44.4731H13.9718V42.5981Z" fill="white"/>
<path d="M13.9718 36.2422H11.6281V38.1172H13.9718V36.2422Z" fill="white"/>
<path d="M13.9718 29.8906H11.6281V31.7656H13.9718V29.8906Z" fill="white"/>
<path d="M13.9718 23.5391H11.6281V25.4141H13.9718V23.5391Z" fill="white"/>
<path d="M13.9718 17.1826H11.6281V19.0576H13.9718V17.1826Z" fill="white"/>
<path d="M33.9499 39.27C29.4406 39.27 25.7703 35.5997 25.7703 31.0903C25.7703 26.581 29.4406 22.9106 33.9499 22.9106C38.4593 22.9106 42.1296 26.581 42.1296 31.0903C42.1296 35.5997 38.4593 39.27 33.9499 39.27ZM33.9499 24.7856C30.4718 24.7856 27.6453 27.6122 27.6453 31.0903C27.6453 34.5685 30.4718 37.395 33.9499 37.395C37.4281 37.395 40.2546 34.5685 40.2546 31.0903C40.2546 27.6122 37.4281 24.7856 33.9499 24.7856Z" fill="white"/>
<path d="M33.9499 33.5044C32.6187 33.5044 31.5359 32.4216 31.5359 31.0903C31.5359 30.9825 31.5453 30.8794 31.5593 30.7716C31.7187 29.5763 32.7453 28.6763 33.9546 28.6763C34.5171 28.6763 35.0609 28.8731 35.4921 29.2294C36.0453 29.6841 36.364 30.3638 36.364 31.0903C36.364 32.4216 35.2812 33.5044 33.9499 33.5044ZM33.9546 30.5513C33.6828 30.5513 33.4531 30.7528 33.4156 31.02V31.0341C33.4109 31.0622 33.4109 31.0763 33.4109 31.095C33.4109 31.3903 33.6546 31.6341 33.9499 31.6341C34.2453 31.6341 34.489 31.3903 34.489 31.095C34.489 30.9356 34.4187 30.781 34.2968 30.6778C34.1984 30.5935 34.0812 30.5513 33.9546 30.5513Z" fill="white"/>
<path d="M44.5437 21.8276C43.9671 21.8276 43.414 21.6214 42.9781 21.2511L42.9453 21.2229C42.9312 21.2136 42.9171 21.1995 42.8984 21.1808C42.4015 20.7167 42.1296 20.0886 42.1296 19.4136C42.1296 18.0823 43.2125 16.9995 44.5437 16.9995C45.5234 16.9995 46.4 17.5854 46.7703 18.4901C46.8921 18.7808 46.9578 19.0901 46.9578 19.4136C46.9578 19.6995 46.9062 19.9854 46.8031 20.2573C46.4515 21.1948 45.5421 21.8276 44.5437 21.8276ZM44.2062 19.8354C44.2765 19.8917 44.3843 19.9526 44.5437 19.9526C44.7687 19.9526 44.9703 19.812 45.05 19.6011C45.0734 19.5401 45.0828 19.4792 45.0828 19.4136C45.0828 19.3433 45.0687 19.2776 45.0453 19.2214L45.0359 19.2026C44.9515 19.0011 44.7593 18.8698 44.539 18.8698C44.2437 18.8698 44 19.1136 44 19.4089C44 19.6011 44.0937 19.7276 44.1734 19.8026C44.1875 19.8167 44.1968 19.8261 44.2062 19.8354Z" fill="white"/>
<path d="M21.0546 41.5669C19.7234 41.5669 18.6406 40.4841 18.6406 39.1528C18.6406 38.82 18.7109 38.4966 18.8468 38.1825C19.2359 37.306 20.1031 36.7388 21.0593 36.7388C21.5937 36.7388 22.0999 36.9122 22.5265 37.2356C23.1171 37.6856 23.4687 38.4028 23.4687 39.1528C23.4687 40.4841 22.3859 41.5669 21.0546 41.5669ZM21.0593 38.6138C20.8437 38.6138 20.6468 38.7403 20.5624 38.9372C20.5343 39.0075 20.5156 39.0825 20.5156 39.1528C20.5156 39.4481 20.7593 39.6919 21.0546 39.6919C21.3499 39.6919 21.5937 39.4481 21.5937 39.1528C21.5937 38.9841 21.5187 38.8247 21.3874 38.7263L21.3828 38.7216C21.3171 38.6747 21.2093 38.6138 21.0593 38.6138Z" fill="white"/>
<path d="M43.8452 43.442H43.8405C43.1843 43.442 42.5702 43.1842 42.1062 42.7201L38.6046 39.2186L42.0781 35.7451L45.5796 39.2467C46.5312 40.1982 46.5359 41.7592 45.5843 42.7154L45.5796 42.7201C45.1156 43.1889 44.5015 43.442 43.8452 43.442ZM41.2577 39.2186L43.4374 41.3982C43.5499 41.5107 43.6906 41.5717 43.8452 41.5717C43.9999 41.5717 44.1452 41.5107 44.2577 41.4029C44.4827 41.1732 44.4827 40.8076 44.2577 40.5826L42.0781 38.3982L41.2577 39.2186Z" fill="white"/>
<path d="M41.665 37.4792L39.7327 35.5469L38.4069 36.8727L40.3392 38.8051L41.665 37.4792Z" fill="white"/>
</svg>
