<svg width="64" height="64" viewBox="0 0 64 64" fill="none" xmlns="http://www.w3.org/2000/svg">
<rect width="64" height="64" rx="32" fill="#0945DE"/>
<path d="M14.7218 11.7686H12.8468V52.2311H14.7218V11.7686Z" fill="white"/>
<path d="M51.903 48.9502H11.4406V50.8252H51.903V48.9502Z" fill="white"/>
<path d="M24.4671 43.1189L17.9046 33.6502L14.103 35.0236L13.4655 33.2611L18.6265 31.4002L24.5327 39.9221L28.2734 34.9861H30.8046L41.0187 19.5408L46.6999 20.4971L51.2327 15.833L52.5734 17.1361L47.3562 22.5127L41.9093 21.5939L31.8171 36.8611H29.2015L24.4671 43.1189Z" fill="white"/>
<path d="M21.0733 49.8877H19.1983V52.2314H21.0733V49.8877Z" fill="white"/>
<path d="M27.4296 49.8877H25.5546V52.2314H27.4296V49.8877Z" fill="white"/>
<path d="M33.7812 49.8877H31.9062V52.2314H33.7812V49.8877Z" fill="white"/>
<path d="M40.1327 49.8877H38.2577V52.2314H40.1327V49.8877Z" fill="white"/>
<path d="M46.489 49.8877H44.614V52.2314H46.489V49.8877Z" fill="white"/>
<path d="M13.7843 42.5981H11.4406V44.4731H13.7843V42.5981Z" fill="white"/>
<path d="M13.7843 36.2417H11.4406V38.1167H13.7843V36.2417Z" fill="white"/>
<path d="M13.7843 29.8906H11.4406V31.7656H13.7843V29.8906Z" fill="white"/>
<path d="M13.7843 23.5396H11.4406V25.4146H13.7843V23.5396Z" fill="white"/>
<path d="M13.7843 17.1826H11.4406V19.0576H13.7843V17.1826Z" fill="white"/>
<line x1="17" y1="45" x2="32" y2="45" stroke="white" stroke-width="2"/>
<line x1="37" y1="13" x2="52" y2="13" stroke="white" stroke-width="2"/>
<path fill-rule="evenodd" clip-rule="evenodd" d="M33.4142 18.2129L33.4142 12H31.4142L31.4142 17.9998L30.4142 16.9998L29 18.414L32.2131 21.6271L32.5208 21.3194L32.8284 21.6271L36.0415 18.414L34.6273 16.9998L33.4142 18.2129Z" fill="white"/>
<path fill-rule="evenodd" clip-rule="evenodd" d="M35.6273 39.4141L35.6273 45.627L37.6273 45.627L37.6273 39.6271L38.6273 40.6271L40.0415 39.2129L36.8284 35.9998L36.5207 36.3075L36.2131 35.9998L33 39.2129L34.4142 40.6271L35.6273 39.4141Z" fill="white"/>
</svg>
