<svg width="64" height="64" viewBox="0 0 64 64" fill="none" xmlns="http://www.w3.org/2000/svg">
<rect width="64" height="64" rx="32" fill="#0945DE"/>
<path d="M15.0499 11.7686H13.1749V52.2311H15.0499V11.7686Z" fill="white"/>
<path d="M52.2312 48.9497H11.7687V50.8247H52.2312V48.9497Z" fill="white"/>
<path d="M21.4015 49.8872H19.5265V52.231H21.4015V49.8872Z" fill="white"/>
<path d="M27.7578 49.8872H25.8828V52.231H27.7578V49.8872Z" fill="white"/>
<path d="M34.1093 49.8872H32.2343V52.231H34.1093V49.8872Z" fill="white"/>
<path d="M40.4609 49.8872H38.5859V52.231H40.4609V49.8872Z" fill="white"/>
<path d="M46.8171 49.8872H44.9421V52.231H46.8171V49.8872Z" fill="white"/>
<path d="M14.1124 42.5977H11.7687V44.4727H14.1124V42.5977Z" fill="white"/>
<path d="M14.1124 36.2422H11.7687V38.1172H14.1124V36.2422Z" fill="white"/>
<path d="M14.1124 29.8901H11.7687V31.7651H14.1124V29.8901Z" fill="white"/>
<path d="M14.1124 23.5391H11.7687V25.4141H14.1124V23.5391Z" fill="white"/>
<path d="M14.1124 17.1821H11.7687V19.0571H14.1124V17.1821Z" fill="white"/>
<path d="M22.7843 33.7344H18.8468C18.3031 33.7344 17.8624 33.2937 17.8624 32.75V23.75C17.8624 23.2062 18.3031 22.7656 18.8468 22.7656H22.7843C23.3281 22.7656 23.7687 23.2062 23.7687 23.75V32.75C23.7687 33.2937 23.3281 33.7344 22.7843 33.7344ZM19.7374 31.8594H21.8937V24.6406H19.7374V31.8594Z" fill="white"/>
<path d="M21.7531 32.7969H19.8781V38.9844H21.7531V32.7969Z" fill="white"/>
<path d="M21.7531 21.2656H19.8781V23.7031H21.7531V21.2656Z" fill="white"/>
<path d="M31.6484 37.0151H27.7109C27.1671 37.0151 26.7265 36.5745 26.7265 36.0308V30.312C26.7265 29.7683 27.1671 29.3276 27.7109 29.3276H31.6484C32.1921 29.3276 32.6328 29.7683 32.6328 30.312V36.0308C32.6328 36.5745 32.1921 37.0151 31.6484 37.0151ZM28.6015 35.1401H30.7578V31.2026H28.6015V35.1401Z" fill="white"/>
<path d="M30.6171 36.0781H28.7421V44.1406H30.6171V36.0781Z" fill="white"/>
<path d="M30.6171 26.4214H28.7421V30.2651H30.6171V26.4214Z" fill="white"/>
<path d="M40.5078 34.2031H36.5703C36.0265 34.2031 35.5859 33.7625 35.5859 33.2187V23.2812C35.5859 22.7375 36.0265 22.2969 36.5703 22.2969H40.5078C41.0515 22.2969 41.4921 22.7375 41.4921 23.2812V33.2187C41.4921 33.7625 41.0515 34.2031 40.5078 34.2031ZM37.4609 32.3281H39.6171V24.1719H37.4609V32.3281Z" fill="white"/>
<path d="M39.4765 33.2656H37.6015V38.5156H39.4765V33.2656Z" fill="white"/>
<path d="M39.4765 20.7969H37.6015V23.2344H39.4765V20.7969Z" fill="white"/>
<path d="M49.3718 31.8594H45.4343C44.8905 31.8594 44.4499 31.4187 44.4499 30.875V17.6562C44.4499 17.1125 44.8905 16.6719 45.4343 16.6719H49.3718C49.9155 16.6719 50.3561 17.1125 50.3561 17.6562V30.875C50.3561 31.4187 49.9155 31.8594 49.3718 31.8594ZM46.3249 29.9844H48.4811V18.5469H46.3249V29.9844Z" fill="white"/>
<path d="M48.3406 30.9209H46.4656V33.3584H48.3406V30.9209Z" fill="white"/>
<path d="M48.3406 15.6406H46.4656V17.6094H48.3406V15.6406Z" fill="white"/>
</svg>
