<svg width="64" height="64" viewBox="0 0 64 64" fill="none" xmlns="http://www.w3.org/2000/svg">
<rect width="64" height="64" rx="32" fill="#0945DE"/>
<path d="M49.2078 18.256H47.3328V15.1528H44.2344V13.2778H49.2078V18.256Z" fill="white"/>
<path d="M33.5563 36.4763H28.3625V30.3872H33.5563V36.4763ZM30.2375 34.6013H31.6813V32.2622H30.2375V34.6013Z" fill="white"/>
<path d="M40.8546 36.4761H35.6609V27.0776H40.8546V36.4761ZM37.5359 34.6011H38.9796V28.9526H37.5359V34.6011Z" fill="white"/>
<path d="M48.1486 36.4805H42.9548V23.2148H48.1486V36.4805ZM44.8298 34.6055H46.2736V25.0898H44.8298V34.6055Z" fill="white"/>
<path d="M28.8641 27.3311L27.6172 25.9342L37.0953 17.4451L39.9687 21.1389L47.6094 13.5498L48.9312 14.8811L39.7906 23.9607L36.8516 20.1826L28.8641 27.3311Z" fill="white"/>
<path d="M49.8594 34.6011H26.6516V36.4761H49.8594V34.6011Z" fill="white"/>
<path d="M45.0921 47.0468C43.8171 43.9015 43.1796 41.6374 43.6812 39.3921L45.5093 39.7999C45.1156 41.5671 45.6921 43.5358 46.8265 46.339L45.0921 47.0468Z" fill="white"/>
<path d="M27.7345 52.7183C27.5188 52.034 27.2423 51.1527 26.7782 49.6621C26.0188 47.1871 24.5001 47.1871 22.0907 47.3887C21.397 47.4449 20.6798 47.5058 20.0188 47.4449C18.786 47.3324 17.872 46.8918 17.3001 46.1324C16.761 45.4105 16.5829 44.4308 16.7938 43.3762C16.8548 43.0855 16.9345 42.8183 17.0095 42.584C17.1079 42.2699 17.2063 41.9418 17.1454 41.848C16.6063 41.0652 16.6438 40.4418 16.7704 40.0527C16.8782 39.7246 17.0657 39.4902 17.2579 39.3215C16.761 38.773 16.8641 37.8355 17.0188 36.973L15.7485 36.6402C15.4438 36.5652 15.1532 36.4152 14.9095 36.2137C14.6751 36.0168 14.4829 35.773 14.3423 35.4777L14.3329 35.4543C13.9954 34.709 14.1173 33.8371 14.6423 33.2137L18.261 28.1512C18.2657 28.0527 18.2704 27.9027 18.2704 27.6918C18.2704 27.3168 18.2563 27.0683 18.247 26.9605L18.2329 26.8949C18.022 26.0183 18.0548 25.3621 18.0782 24.8793C18.0829 24.748 18.0923 24.6355 18.0923 24.5371C18.0829 22.0949 18.5845 19.9387 19.5829 18.134C20.4829 16.5027 21.8001 15.134 23.4923 14.0699C26.1782 12.3824 29.811 11.4449 34.2923 11.2902C36.6829 11.2058 38.9423 11.5527 41.0048 12.3262L40.3485 14.084C38.5157 13.3996 36.5001 13.0902 34.3579 13.1699C30.2141 13.3152 26.8954 14.159 24.4907 15.6683C21.4766 17.5574 19.9579 20.5433 19.972 24.5418C19.972 24.6918 19.9673 24.8324 19.9579 24.9777C19.9391 25.3902 19.9157 25.8168 20.047 26.3933C20.1126 26.5855 20.1548 26.909 20.1548 27.6965C20.1548 28.4277 20.1454 28.798 19.911 29.0887L16.1282 34.3808L16.0954 34.4183C16.0298 34.4887 16.0157 34.5918 16.0485 34.6808C16.072 34.723 16.0954 34.7558 16.1188 34.7746C16.147 34.798 16.1845 34.8168 16.2173 34.8262L16.2313 34.8308L17.7688 35.234C17.9938 35.2902 18.2095 35.3793 18.4157 35.4965L18.4204 35.5012C18.8516 35.7496 19.0813 36.2465 18.9923 36.7387V36.7433C18.9782 36.8043 18.9688 36.8746 18.9548 36.9449C18.9079 37.1793 18.8048 37.7183 18.786 38.0512C18.9688 38.1168 19.2454 38.2058 19.6673 38.323C20.1266 38.4496 20.4454 38.8527 20.4501 39.3308C20.4595 39.809 20.1595 40.2215 19.7048 40.3621L18.6454 40.6996C18.6595 40.7277 18.6782 40.7558 18.7016 40.7887C19.2829 41.6324 19.011 42.5043 18.8141 43.1418C18.7485 43.3527 18.6876 43.5496 18.6501 43.7465C18.5891 44.0512 18.5282 44.623 18.8235 45.0121C19.0626 45.3308 19.5266 45.5183 20.2063 45.584C20.7032 45.6308 21.3126 45.5793 21.9548 45.523C23.1032 45.4293 24.4063 45.3168 25.6016 45.7199C27.0407 46.2027 28.0485 47.3465 28.5923 49.1137C29.0423 50.5715 29.3282 51.4808 29.5391 52.1512L27.7345 52.7183Z" fill="white"/>
</svg>
