<svg width="48" height="48" viewBox="0 0 48 48" fill="none" xmlns="http://www.w3.org/2000/svg">
<path d="M44 24C44 12.9543 35.0456 4 24 4C12.9543 4 4 12.9543 4 24C4 35.0456 12.9543 44 24 44" stroke="#0945DE" stroke-width="3" stroke-linecap="round" stroke-linejoin="round"/>
<path d="M26 4.09863C26 4.09863 32 11.9999 32 23.9998" stroke="#0945DE" stroke-width="3" stroke-linecap="round" stroke-linejoin="round"/>
<path d="M22 43.9012C22 43.9012 16 35.9998 16 23.9998C16 11.9999 22 4.09863 22 4.09863" stroke="#0945DE" stroke-width="3" stroke-linecap="round" stroke-linejoin="round"/>
<path d="M5.25928 31H24" stroke="#0945DE" stroke-width="3" stroke-linecap="round" stroke-linejoin="round"/>
<path d="M5.25928 17H42.7408" stroke="#0945DE" stroke-width="3" stroke-linecap="round" stroke-linejoin="round"/>
<path fill-rule="evenodd" clip-rule="evenodd" d="M43.7578 35.8348C44.7454 36.4422 44.6846 37.9208 43.6674 38.0362L38.5342 38.618L36.2318 43.2426C35.7756 44.159 34.3654 43.7104 34.1322 42.5746L31.6216 30.3426C31.4246 29.3826 32.2874 28.7784 33.122 29.292L43.7578 35.8348Z" stroke="#0945DE" stroke-width="3"/>
</svg>
