<svg width="48" height="39" viewBox="0 0 48 39" fill="none" xmlns="http://www.w3.org/2000/svg">
<path d="M48 0C42.4582 0 36.9795 1.39648 32.1524 4.04107C29.5672 5.45676 27.1799 7.21284 25.0588 9.26392C24.5596 9.74396 24.0709 10.2467 23.6033 10.7599C22.0392 12.4776 20.652 14.3628 19.4872 16.3615C19.0739 17.079 18.615 17.779 18.1246 18.4475C18.0598 18.5348 17.9985 18.6221 17.9284 18.7076C13.639 24.3651 7.10411 27.6085 0 27.6085V38.0611C5.54176 38.0611 11.0205 36.6647 15.8476 34.0218C18.4276 32.6096 20.8149 30.8501 22.9412 28.799C23.4404 28.3172 23.9291 27.8145 24.3985 27.303C25.9643 25.5836 27.3462 23.7018 28.511 21.7013L28.5881 21.5722C28.9822 20.8984 29.4165 20.242 29.8737 19.6171C29.9385 19.5316 30.0033 19.4425 30.0716 19.3518C34.3593 13.696 40.8959 10.4509 48 10.4509V0Z" fill="#2954FE"/>
<path d="M48 27.6116C40.8959 27.6116 34.3593 24.3665 30.0681 18.709C30.005 18.6235 29.9385 18.538 29.8737 18.4454C29.385 17.7821 28.9261 17.0804 28.5128 16.3612C27.348 14.3642 25.9626 12.4807 24.3967 10.7613C23.9291 10.2516 23.4404 9.74884 22.9412 9.26706C20.8201 7.21597 18.4346 5.45815 15.8476 4.04421C11.0205 1.40137 5.54176 0.00488281 0 0.00488281V10.4576C7.10411 10.4576 13.6407 13.7009 17.9319 19.3584C17.9985 19.4439 18.0615 19.533 18.1263 19.6185C18.587 20.2452 19.0213 20.9033 19.4102 21.5701L19.4925 21.7062C20.6555 23.7015 22.0392 25.5832 23.6033 27.3044C24.0692 27.8141 24.5596 28.3168 25.0588 28.7986C27.1834 30.8497 29.5707 32.6093 32.1524 34.0215C36.9795 36.6643 42.4582 38.0608 48 38.0608V27.6116Z" fill="#2954FE"/>
</svg>
