<svg width="36" height="36" viewBox="0 0 36 36" fill="none" xmlns="http://www.w3.org/2000/svg">
<rect width="36" height="36" rx="18" fill="#0945DE"/>
<path d="M11.7445 22.4682C11.2509 22.9617 11.2509 23.7619 11.7445 24.2555C12.238 24.749 13.0382 24.749 13.5318 24.2555L11.7445 22.4682ZM24.6257 12.638C24.6257 11.94 24.0599 11.3742 23.3619 11.3742L11.9876 11.3742C11.2896 11.3742 10.7238 11.94 10.7238 12.638C10.7238 13.336 11.2896 13.9018 11.9876 13.9018H22.0981V24.0123C22.0981 24.7103 22.6639 25.2761 23.3619 25.2761C24.0599 25.2761 24.6257 24.7103 24.6257 24.0123L24.6257 12.638ZM13.5318 24.2555L24.2556 13.5317L22.4683 11.7444L11.7445 22.4682L13.5318 24.2555Z" fill="white"/>
</svg>
