<svg width="64" height="64" viewBox="0 0 64 64" fill="none" xmlns="http://www.w3.org/2000/svg">
<rect width="64" height="64" rx="32" fill="#0945DE"/>
<path d="M48.8047 49.4986H32.3281V47.6236H48.8047C49.7 47.6236 50.4266 46.8971 50.4266 46.0018C50.4266 45.5705 50.2578 45.1627 49.9531 44.8533C49.6484 44.5486 49.2406 44.3799 48.8047 44.3799H45.5469V42.5049H48.8047C49.7375 42.5049 50.6141 42.8705 51.275 43.5314C51.9359 44.1924 52.3016 45.0689 52.3016 46.0018C52.3016 47.9283 50.7313 49.4986 48.8047 49.4986Z" fill="white"/>
<path d="M47.6375 43.5219L46.6296 31.5734C46.2265 26.7125 42.7578 22.7141 38.0046 21.6172L38.4265 19.7891C41.1078 20.4078 43.489 21.8328 45.3125 23.9094C47.164 26.0187 48.2656 28.6156 48.5 31.4141L49.5078 43.3625L47.6375 43.5219Z" fill="white"/>
<path d="M24.964 28.7656L23.1968 28.1375C23.928 26.0844 25.1749 24.2281 26.8108 22.7703C28.4468 21.3125 30.439 20.2812 32.5671 19.7891L32.989 21.6172C29.3046 22.4656 26.2296 25.2031 24.964 28.7656Z" fill="white"/>
<path d="M39.1485 21.6454H31.8454V20.9001L29.3844 15.2938C29.1969 14.8766 29.2672 14.3938 29.5626 14.0423C29.8579 13.686 30.3219 13.536 30.7719 13.6485L30.786 13.6532L33.0407 14.2438C33.8329 14.4548 34.6813 14.3141 35.3704 13.8688C36.5891 13.072 38.0844 12.8751 39.4719 13.3345L40.9766 13.8313C41.3 13.9345 41.5626 14.1688 41.6985 14.4782C41.8391 14.7923 41.8391 15.1532 41.6985 15.472L41.6938 15.486L39.1485 20.9235V21.6454ZM33.3969 19.7704H37.611L39.6735 15.3688L38.886 15.111C38.0422 14.8345 37.1329 14.9516 36.3922 15.4345C35.2579 16.1704 33.861 16.3954 32.5625 16.0532L31.6625 15.8188L33.3969 19.7704Z" fill="white"/>
<path d="M35.4173 21.1848L33.8091 20.2207L31.676 23.7788L33.2841 24.7429L35.4173 21.1848Z" fill="white"/>
<path d="M39.3182 23.7788L37.1851 20.2207L35.5769 21.1848L37.71 24.7429L39.3182 23.7788Z" fill="white"/>
<path d="M36.4343 39.8892H34.5593V41.8251H36.4343V39.8892Z" fill="white"/>
<path d="M36.4343 28.9814H34.5593V30.8799H36.4343V28.9814Z" fill="white"/>
<path d="M36.3078 40.8266H34.6859C32.9844 40.8266 31.5969 39.4766 31.5969 37.8125H33.4719C33.4719 38.4406 34.0156 38.9516 34.6859 38.9516H36.3078C37.0766 38.9516 37.7047 38.3609 37.7047 37.6344C37.7047 37.2875 37.5641 36.9641 37.3063 36.7156C37.0391 36.4578 36.6875 36.3172 36.3078 36.3172H34.6859C32.8812 36.3172 31.4141 34.8875 31.4141 33.1297C31.4141 32.2719 31.7609 31.4656 32.3844 30.8609C33.0031 30.2656 33.8187 29.9375 34.6859 29.9375H36.3078C38.0094 29.9375 39.3969 31.2875 39.3969 32.9516H37.5219C37.5219 32.3234 36.9781 31.8125 36.3078 31.8125H34.6859C34.3062 31.8125 33.9547 31.9531 33.6875 32.2109C33.4297 32.4594 33.2891 32.7875 33.2891 33.1297C33.2891 33.8516 33.9172 34.4422 34.6859 34.4422H36.3078C37.175 34.4422 37.9906 34.7703 38.6094 35.3656C39.2328 35.9703 39.5797 36.7766 39.5797 37.6344C39.5797 39.3969 38.1125 40.8266 36.3078 40.8266Z" fill="white"/>
<path d="M22.4845 40.6861C21.4391 40.6861 20.4313 40.3721 19.5688 39.7814C18.3595 38.9518 17.5626 37.6393 17.3798 36.1861L17.0329 33.4533C16.836 31.8924 17.3188 30.3127 18.3595 29.1314C19.4001 27.9455 20.9048 27.2705 22.4845 27.2705C23.961 27.2705 25.3438 27.8471 26.3845 28.8924C27.5798 30.1018 28.147 31.7611 27.936 33.4533L27.5891 36.1861C27.4063 37.6346 26.6095 38.9424 25.4001 39.7768C24.5376 40.3721 23.5298 40.6861 22.4845 40.6861ZM22.4845 29.1455C21.4438 29.1455 20.4548 29.5908 19.7704 30.3736C19.086 31.1518 18.7673 32.1877 18.8985 33.2189L19.2454 35.9518C19.3626 36.8752 19.8688 37.7096 20.6376 38.2346C21.186 38.6096 21.8235 38.8111 22.4891 38.8111C23.1548 38.8111 23.7923 38.6143 24.336 38.2346C25.1048 37.7049 25.611 36.8705 25.7282 35.9518L26.0751 33.2189C26.2157 32.1033 25.8407 31.0111 25.0532 30.2143C24.3688 29.5252 23.4548 29.1455 22.4845 29.1455Z" fill="white"/>
<path d="M13.5781 50.9049H11.7031V46.808C11.7031 45.7861 12.0266 44.8064 12.6359 43.9861C13.2453 43.1611 14.0891 42.5705 15.0687 42.2705L18.6172 41.1924C18.8187 41.1314 18.9641 40.958 18.9828 40.7471L19.1703 38.9189L21.0359 39.1111L20.8484 40.9393C20.75 41.9049 20.0844 42.7111 19.1609 42.9877L15.6172 44.0658C14.4172 44.4314 13.5828 45.5611 13.5828 46.8127V50.9049H13.5781Z" fill="white"/>
<path d="M33.261 50.9047H31.386V46.8078C31.386 45.5563 30.547 44.4266 29.3517 44.0609L25.8032 42.9828C24.8798 42.7062 24.2188 41.9 24.1157 40.9344L23.9282 39.1062L25.7938 38.9141L25.9813 40.7422C26.0048 40.9531 26.1454 41.1266 26.347 41.1875L29.9001 42.2656C30.8798 42.5656 31.7235 43.1562 32.3329 43.9812C32.9423 44.8062 33.2657 45.7812 33.2657 46.8031V50.9047H33.261Z" fill="white"/>
<path d="M17.7219 48.0317H15.8469V50.9052H17.7219V48.0317Z" fill="white"/>
<path d="M29.1172 48.0317H27.2422V50.9052H29.1172V48.0317Z" fill="white"/>
</svg>
