<svg width="64" height="64" viewBox="0 0 64 64" fill="none" xmlns="http://www.w3.org/2000/svg">
<rect width="64" height="64" rx="32" fill="#0945DE"/>
<path d="M50.5766 45.7086H13.4234C12.2375 45.7086 11.2719 44.743 11.2719 43.557V16.7727C11.2719 15.5867 12.2375 14.6211 13.4234 14.6211H17.5625V16.4961H13.4234C13.2687 16.4961 13.1469 16.618 13.1469 16.7727V43.557C13.1469 43.7117 13.2687 43.8336 13.4234 43.8336H50.5766C50.7313 43.8336 50.8531 43.7117 50.8531 43.557V16.7727C50.8531 16.618 50.7313 16.4961 50.5766 16.4961H46.4375V14.6211H50.5766C51.7625 14.6211 52.7281 15.5867 52.7281 16.7727V43.557C52.7281 44.743 51.7625 45.7086 50.5766 45.7086Z" fill="white"/>
<path d="M36.5938 51.9476H27.4062V43.8335H36.5938V51.9476ZM29.2812 50.0726H34.7188V45.7085H29.2812V50.0726Z" fill="white"/>
<path d="M39.8 50.0728H24.2V51.9478H39.8V50.0728Z" fill="white"/>
<path d="M51.7906 37.7305H12.2047V39.6055H51.7906V37.7305Z" fill="white"/>
<path d="M24.3172 33.1788C24.0219 33.1788 23.75 33.0522 23.5625 32.8272L16.9578 25.0741C16.7094 24.7835 16.6531 24.371 16.8125 24.0194C16.9719 23.6679 17.3234 23.4429 17.7078 23.4429H20.3937V13.9788C20.3937 13.4351 20.8391 12.9897 21.3828 12.9897H27.2562C27.8 12.9897 28.2453 13.4351 28.2453 13.9788V23.4429H30.9312C31.3109 23.4429 31.6625 23.6679 31.8219 24.0147C31.9812 24.3663 31.925 24.7788 31.6766 25.0694L25.0719 32.8272C24.8844 33.0476 24.6125 33.1788 24.3172 33.1788ZM19.6297 25.3179L24.3172 30.821L29.0047 25.3179H27.3594C26.8156 25.3179 26.3703 24.8726 26.3703 24.3288V14.8647H22.2688V24.3288C22.2688 24.8726 21.8234 25.3179 21.2797 25.3179H19.6297Z" fill="white"/>
<path d="M42.6219 32.2413H36.7484C36.2047 32.2413 35.7594 31.796 35.7594 31.2522V21.7882H33.0734C32.6891 21.7882 32.3375 21.5632 32.1781 21.2116C32.0187 20.8601 32.075 20.4476 32.3234 20.1569L38.9281 12.4038C39.1156 12.1788 39.3875 12.0522 39.6828 12.0522C39.9781 12.0522 40.25 12.1788 40.4375 12.4038L47.0469 20.1616C47.2953 20.4522 47.3562 20.8647 47.1922 21.2116C47.0328 21.5585 46.6812 21.7882 46.2969 21.7882H43.6109V31.2522C43.6109 31.796 43.1656 32.2413 42.6219 32.2413ZM37.6344 30.3663H41.7359V20.9022C41.7359 20.3585 42.1812 19.9132 42.725 19.9132H44.3703L39.6828 14.4101L34.9953 19.9132H36.6453C37.1891 19.9132 37.6344 20.3585 37.6344 20.9022V30.3663Z" fill="white"/>
</svg>
