<svg width="64" height="64" viewBox="0 0 64 64" fill="none" xmlns="http://www.w3.org/2000/svg">
<rect width="64" height="64" rx="32" fill="#0945DE"/>
<path d="M14.7218 11.7686H12.8468V52.2311H14.7218V11.7686Z" fill="white"/>
<path d="M51.903 48.9502H11.4406V50.8252H51.903V48.9502Z" fill="white"/>
<path d="M26.5342 30.3082C26.2389 30.3082 25.967 30.1816 25.7795 29.9566L19.1748 22.2035C18.9264 21.9129 18.8701 21.5004 19.0295 21.1488C19.1889 20.7973 19.5404 20.5723 19.9248 20.5723H22.6108V14.8582C22.6108 14.3145 23.0561 13.8691 23.5998 13.8691H29.4733C30.017 13.8691 30.4623 14.3145 30.4623 14.8582V20.5723H33.1483C33.5467 20.5723 33.9029 20.8113 34.0576 21.1816C34.2029 21.5332 34.1373 21.927 33.8889 22.2082L27.2889 29.9566C27.1014 30.177 26.8295 30.3082 26.5342 30.3082ZM21.8467 22.4473L26.5342 27.9504L31.2217 22.4473H29.5764C29.0326 22.4473 28.5873 22.002 28.5873 21.4582V15.7441H24.4858V21.4582C24.4858 22.002 24.0404 22.4473 23.4967 22.4473H21.8467Z" fill="white"/>
<path d="M47.1827 45.4435H41.3093C40.7655 45.4435 40.3202 44.9981 40.3202 44.4544V38.7403H37.6343C37.2499 38.7403 36.8984 38.5153 36.739 38.1638C36.5796 37.8122 36.6359 37.3997 36.8843 37.1091L43.4937 29.356C43.6812 29.131 43.953 29.0044 44.2484 29.0044C44.5437 29.0044 44.8155 29.131 45.003 29.356L51.6077 37.1091C51.8562 37.3997 51.9124 37.8169 51.753 38.1638C51.5937 38.5153 51.2421 38.7403 50.8577 38.7403H48.1718V44.4544C48.1718 44.9981 47.7265 45.4435 47.1827 45.4435ZM42.1952 43.5685H46.2968V37.8544C46.2968 37.3106 46.7421 36.8653 47.2859 36.8653H48.9359L44.2484 31.3622L39.5562 36.8653H41.2062C41.7499 36.8653 42.1952 37.3106 42.1952 37.8544V43.5685Z" fill="white"/>
<path d="M24.4671 43.1189L17.9046 33.6502L14.1031 35.0236L13.4656 33.2611L18.6265 31.4002L24.5328 39.9221L28.2734 34.9861H30.8046L41.0187 19.5408L46.7 20.4971L51.2328 15.833L52.5734 17.1361L47.3562 22.5127L41.9093 21.5939L31.8171 36.8611H29.2015L24.4671 43.1189Z" fill="white"/>
<path d="M21.0734 49.8877H19.1984V52.2314H21.0734V49.8877Z" fill="white"/>
<path d="M27.4296 49.8877H25.5546V52.2314H27.4296V49.8877Z" fill="white"/>
<path d="M33.7811 49.8877H31.9061V52.2314H33.7811V49.8877Z" fill="white"/>
<path d="M40.1327 49.8877H38.2577V52.2314H40.1327V49.8877Z" fill="white"/>
<path d="M46.489 49.8877H44.614V52.2314H46.489V49.8877Z" fill="white"/>
<path d="M13.7843 42.5981H11.4406V44.4731H13.7843V42.5981Z" fill="white"/>
<path d="M13.7843 36.2417H11.4406V38.1167H13.7843V36.2417Z" fill="white"/>
<path d="M13.7843 29.8906H11.4406V31.7656H13.7843V29.8906Z" fill="white"/>
<path d="M13.7843 23.5396H11.4406V25.4146H13.7843V23.5396Z" fill="white"/>
<path d="M13.7843 17.1826H11.4406V19.0576H13.7843V17.1826Z" fill="white"/>
</svg>
